<?xml version="1.0" encoding="UTF-8"?>
<svg xmlns="http://www.w3.org/2000/svg" viewBox="0 0 260 200" aria-hidden="true"><circle cx="130" cy="105" r="88" fill="#DDF3E8"></circle><path d="M40 150 q0 -32 26 -32 h16 q14 0 14 18 v34 h-56 z" fill="#3D86D6"></path><path d="M220 150 q0 -32 -26 -32 h-16 q-14 0 -14 18 v34 h56 z" fill="#6A4CE0"></path><g transform="translate(70 70) scale(0.9)"><path d="M-26 70 C-26 30 26 30 26 70 Z" fill="#FFD08A"></path><circle cx="0" cy="12" r="15" fill="#F2C4A8"></circle><path d="M-15 10 C-15 -6 15 -6 15 10 C10 2 -8 2 -15 10 Z" fill="#8D5B43"></path></g><g transform="translate(190 70) scale(0.9)"><path d="M-26 70 C-26 30 26 30 26 70 Z" fill="#FF8A65"></path><circle cx="0" cy="12" r="15" fill="#8D5B43"></circle><path d="M-15 10 C-15 -6 15 -6 15 10 C10 2 -8 2 -15 10 Z" fill="#2D2440"></path></g><rect x="92" y="26" width="52" height="30" rx="15" fill="white"></rect><path d="M104 52 l-6 10 l14 -8 z" fill="white"></path><circle cx="108" cy="41" r="3" fill="#948BA3"></circle><circle cx="118" cy="41" r="3" fill="#948BA3"></circle><circle cx="128" cy="41" r="3" fill="#948BA3"></circle><path d="M160 34 c-5 -8 -18 -4 -13 6 l13 11 l13 -11 c5 -10 -8 -14 -13 -6 z" fill="#FF8A65"></path><ellipse cx="130" cy="182" rx="88" ry="7" fill="#EADFD4"></ellipse><path d="M128 182 c-3 -22 2 -34 12 -40 c-1 14 -4 28 -12 40 z" fill="#2F9E78"></path></svg>
